<svg xmlns="http://www.w3.org/2000/svg" width="100" height="100" style="display:none;">
    <!-- Active Icon -->
    <symbol id="active-icon" viewBox="0 0 24 24">
        <circle cx="12" cy="12" r="10" fill="#00FF00" />
        <text x="12" y="16" font-size="12" text-anchor="middle" fill="#FFFFFF">Active</text>
    </symbol>

    <!-- Inactive Icon -->
    <symbol id="inactive-icon" viewBox="0 0 24 24">
        <circle cx="12" cy="12" r="10" fill="#FF0000" />
        <text x="12" y="16" font-size="12" text-anchor="middle" fill="#FFFFFF">Inactive</text>
    </symbol>

    <!-- Show Icon -->
    <symbol id="show-icon" viewBox="0 0 24 24">
        <path d="M12 4.5C8.5 4.5 5.5 7 3.5 10c2 3 5 5.5 8.5 5.5s6.5-2.5 8.5-5.5C18.5 7 15.5 4.5 12 4.5zm0 10.5c-2.5 0-4.5-2-4.5-4.5S9.5 6 12 6s4.5 2 4.5 4.5S14.5 15 12 15z"/>
    </symbol>

    <!-- Float Icon -->
    <symbol id="float-icon" viewBox="0 0 24 24">
        <path d="M12 2C6.5 2 2 6.5 2 12s4.5 10 10 10 10-4.5 10-10S17.5 2 12 2zm0 18c-4.4 0-8-3.6-8-8s3.6-8 8-8 8 3.6 8 8-3.6 8-8 8z"/>
    </symbol>

    <!-- Settings Icon -->
    <symbol id="settings-icon" viewBox="0 0 24 24">
        <path d="M12 8.5c-1.4 0-2.5 1.1-2.5 2.5S10.6 13.5 12 13.5s2.5-1.1 2.5-2.5S13.4 8.5 12 8.5zm0 8c-2.5 0-4.5-2-4.5-4.5S9.5 8.5 12 8.5s4.5 2 4.5 4.5S14.5 16.5 12 16.5z"/>
    </symbol>

    <!-- Network Icon -->
    <symbol id="network-icon" viewBox="0 0 24 24">
        <path d="M12 2C6.5 2 2 6.5 2 12s4.5 10 10 10 10-4.5 10-10S17.5 2 12 2zm0 18c-4.4 0-8-3.6-8-8s3.6-8 8-8 8 3.6 8 8-3.6 8-8 8z"/>
    </symbol>

    <!-- Exit Icon -->
    <symbol id="exit-icon" viewBox="0 0 24 24">
        <path d="M10 15l-3-3h6V9H7l3-3 3 3H10v3h6l-3 3-3-3z"/>
    </symbol>
</svg> 